#N canvas 52 116 516 214 10;
#X declare -lib iem_tab;
#X declare -lib iemmatrix;
#X obj 300 -62 table one\$0;
#X obj 113 -84 inlet;
#X obj 112 100 switch~;
#N canvas 330 47 496 478 table-rec 0;
#X obj 182 338 arraycopy block\$0;
#X obj 181 130 f;
#X obj 181 231 spigot;
#X obj 181 173 t f f;
#X obj 214 211 <;
#X obj 160 366 f;
#X msg 169 69 0;
#X obj 152 -43 inlet;
#X obj 37 65 inlet;
#X obj 152 -19 unpack s s f f;
#X obj 370 136 / 512;
#X obj 207 130 + 512;
#X msg 309 84 set \$1;
#X obj 182 287 pack f s f;
#X msg 182 312 copy \$2 \$1 +\$3;
#X obj 37 158 outlet;
#X obj 152 43 t b b b s;
#X obj 230 188 - 1024;
#X obj 309 106 arraysize sound;
#X obj 37 99 spigot;
#N canvas 208 24 412 364 zeropad 0;
#X obj 156 48 log;
#X obj 141 81 /;
#X obj 156 6 loadbang;
#X floatatom 142 199 5 0 0 0 - - -;
#X obj 141 130 fmod 1;
#X obj 191 131 int;
#X obj 141 154 > 0;
#X obj 142 177 +;
#X obj 141 102 t f f;
#X msg 156 27 2;
#X msg 142 219 2 \$1;
#X obj 142 245 pow;
#X obj 126 47 log;
#X obj 126 -22 inlet;
#X obj 142 304 outlet;
#X msg 142 268 set \$1 1 1;
#X connect 0 0 1 1;
#X connect 1 0 8 0;
#X connect 2 0 9 0;
#X connect 3 0 10 0;
#X connect 4 0 6 0;
#X connect 5 0 7 1;
#X connect 6 0 7 0;
#X connect 7 0 3 0;
#X connect 8 0 4 0;
#X connect 8 1 5 0;
#X connect 9 0 0 0;
#X connect 10 0 11 0;
#X connect 11 0 15 0;
#X connect 12 0 1 0;
#X connect 13 0 12 0;
#X connect 15 0 14 0;
#X restore 311 6 pd zeropad;
#X obj 311 27 outlet;
#X obj 370 189 pack f s;
#X msg 370 212 \; \$2 resize \$1;
#X obj 206 8 s \$0window-size;
#X obj 234 50 s \$0hop-size;
#X obj 408 136 r \$0hop-size;
#X obj 235 108 r \$0hop-size;
#X obj 263 167 r \$0window-size;
#X obj 238 266 r \$0window-size;
#X obj 151 103 del 1;
#X obj 384 41 s \$0interp;
#X obj 383 0 b;
#X msg 384 21 1;
#X obj 370 164 * 24;
#X obj 186 367 + 24;
#X obj 65 403 s;
#X obj 65 370 prepend;
#X obj 37 123 t b b b l;
#X msg 83 70 0;
#X connect 1 0 3 0;
#X connect 1 0 11 0;
#X connect 2 0 13 0;
#X connect 3 0 2 0;
#X connect 3 1 4 0;
#X connect 4 0 2 1;
#X connect 4 0 19 1;
#X connect 5 0 35 0;
#X connect 5 0 37 1;
#X connect 6 0 1 0;
#X connect 6 0 5 0;
#X connect 7 0 9 0;
#X connect 8 0 19 0;
#X connect 9 0 16 0;
#X connect 9 1 22 1;
#X connect 9 1 36 1;
#X connect 9 2 20 0;
#X connect 9 2 24 0;
#X connect 9 3 25 0;
#X connect 9 3 32 0;
#X connect 10 0 34 0;
#X connect 11 0 1 1;
#X connect 12 0 18 0;
#X connect 13 0 14 0;
#X connect 14 0 0 0;
#X connect 16 0 30 0;
#X connect 16 1 6 0;
#X connect 16 2 18 0;
#X connect 16 3 12 0;
#X connect 16 3 13 1;
#X connect 17 0 4 1;
#X connect 18 0 17 0;
#X connect 18 0 10 0;
#X connect 19 0 38 0;
#X connect 20 0 21 0;
#X connect 22 0 23 0;
#X connect 26 0 10 1;
#X connect 27 0 11 1;
#X connect 28 0 17 1;
#X connect 29 0 13 2;
#X connect 30 0 15 0;
#X connect 32 0 33 0;
#X connect 33 0 31 0;
#X connect 34 0 22 0;
#X connect 35 0 5 1;
#X connect 37 0 36 0;
#X connect 38 0 15 0;
#X connect 38 1 1 0;
#X connect 38 2 5 0;
#X connect 38 3 37 0;
#X connect 39 0 19 1;
#X restore 112 58 pd table-rec;
#X obj 245 46 b;
#X msg 245 70 0;
#X obj 25 -55 inlet~;
#X msg 301 13 resize \$1 \, const 0;
#X obj 395 104 s one\$0;
#X obj 300 -39 table block\$0;
#X obj 301 67 s block\$0;
#N canvas 170 114 406 686 analysis 1;
#X obj 10 -333 tabreceive~ block\$0;
#X obj 244 -34 block~;
#X msg 244 -59 set \$1 1 1;
#X obj 244 -90 r \$0window-size;
#X obj -7 -225 *~;
#X obj 18 -228 *~;
#X obj -1 -203 +~;
#X obj 0 -179 sqrt~;
#X obj -7 -261 rfft~;
#X obj -6 -313 inlet~;
#X obj -6 -288 *~;
#X obj 39 -312 tabreceive~ \$0-hann;
#X obj 1 -155 tabsend~ one\$0;
#N canvas 696 31 479 559 dct 0;
#X obj 81 -30 mtx;
#X obj 81 -125 t b f f;
#X obj 82 -7 mtx_mul 0;
#X obj 82 15 mtx_cos;
#X obj 43 146 mtx_mul;
#X obj 94 193 outlet;
#X obj 82 62 prepend;
#X obj 82 88 prepend col;
#X obj 43 170 niagara 3;
#N canvas 617 106 467 415 outras 0;
#X obj -124 -254 s \$0um;
#X obj -123 -272 prepend 0;
#X obj -127 -236 for++ 0 1023;
#X obj -132 -136 list-map;
#X obj -132 -115 sum;
#X obj -132 -93 tabwrite \$0dois;
#X obj -133 -185 tab_mul_scalar \$0um \$0tres;
#X obj -127 -214 t f f f;
#X obj -131 -156 tabdump \$0tres;
#X obj -79 -131 cos;
#X text -122 -315 possibilidade de fazer com tables apenas muito mais
pesado mas permite que se opere com vetores maiores que 1024 (matrizes
operam ate isse tamanho);
#X obj -167 41 mtx_mul;
#X obj -167 64 mtx_print;
#X obj -149 13 mtx 10 2;
#X obj -155 -10 bng 15 250 50 0 empty empty empty 17 7 0 10 -262144
-1 -1;
#X text -164 -65 como funciona a multiplicacao de matrizes;
#X msg 103 -73 1 2 3 4 5 6 7 8 9 10;
#X obj 103 -50 sum;
#X floatatom 117 -20 5 0 0 0 - - -;
#X obj -48 47 mtx_print;
#X msg -89 7 col 2 2 2 2 2 2 2 2 2 2 2;
#X msg -123 -17 col 1 10 0 0 0 0 0 0 0 0 0;
#X msg -168 -46 matrix 1 10 1 2 3 4 5 6 7 8 9 10;
#X connect 1 0 0 0;
#X connect 2 0 7 0;
#X connect 3 0 4 0;
#X connect 3 1 9 0;
#X connect 4 0 5 0;
#X connect 6 0 8 0;
#X connect 7 0 6 0;
#X connect 7 1 5 1;
#X connect 8 0 3 0;
#X connect 9 0 3 1;
#X connect 11 0 12 0;
#X connect 13 0 11 1;
#X connect 13 0 19 0;
#X connect 14 0 13 0;
#X connect 16 0 17 0;
#X connect 17 0 18 0;
#X connect 20 0 13 0;
#X connect 21 0 13 0;
#X connect 22 0 11 0;
#X restore 262 -279 pd outras possibilidades;
#X obj -60 34 inlet;
#X obj -60 83 list prepend matrix 1;
#X obj -60 106 list trim;
#X obj 95 -178 t l b;
#X obj 95 -201 list split 24;
#X obj 94 -222 list prepend;
#X obj 94 -275 for++ 1 24;
#X obj 93 -250 expr ($f1-0.5)*(3.1415/24);
#X obj 83 -147 for++ 1 24;
#X obj 82 112 mtx 24 24;
#X obj 96 -57 prepend matrix 24 1;
#X obj -60 57 list prepend 24;
#X obj 94 -299 loadbang;
#X connect 0 0 2 0;
#X connect 1 0 0 0;
#X connect 1 1 6 1;
#X connect 1 2 2 1;
#X connect 2 0 3 0;
#X connect 3 0 6 0;
#X connect 4 0 8 0;
#X connect 6 0 7 0;
#X connect 7 0 19 0;
#X connect 8 1 5 0;
#X connect 10 0 21 0;
#X connect 11 0 12 0;
#X connect 12 0 4 0;
#X connect 13 0 20 0;
#X connect 13 1 15 1;
#X connect 14 0 13 0;
#X connect 14 2 15 1;
#X connect 15 0 14 0;
#X connect 16 0 17 0;
#X connect 16 1 18 0;
#X connect 17 0 15 0;
#X connect 18 0 1 0;
#X connect 18 1 19 0;
#X connect 19 0 4 1;
#X connect 20 0 0 1;
#X connect 21 0 11 0;
#X connect 22 0 16 0;
#X restore 88 244 pd dct;
#X obj 88 320 outlet;
#X obj 10 -129 bang~;
#X obj 11 32 tabread \$0bark;
#X obj 102 34 tabread \$0bark;
#X obj 102 14 + 1;
#X obj 11 118 tab_sum one\$0;
#X obj 11 -3 t f f;
#X obj 11 96 pack f f;
#X obj 11 51 t f f;
#X obj 11 -23 for++ 0 23;
#X obj 56 68 expr if($f1!= 530 \, $f2-($f1+1) \, $f2-$f1);
#X obj 87 176 list prepend;
#X obj 88 199 list split 24;
#X obj 102 147 expr log(if($f1==0 \, 1 \, max($f1 \, 1)));
#X obj 11 -106 t b b;
#X obj 38 -61 s one\$0;
#X obj 88 220 t l b;
#X msg 38 -81 0 0;
#X obj 88 274 spigot 1;
#X obj 156 243 == 0;
#X obj 158 275 spigot 0;
#N canvas 0 22 1280 724 normalize 0;
#X obj 52 -148 list split 1;
#X obj 86 -124 list;
#X obj 52 -85 max;
#X obj 52 -107 abs;
#X obj 80 -85 f;
#X msg 68 -169 0;
#X obj 35 -15 /;
#X obj 70 -35 list;
#X obj 33 48 t l b;
#X obj 35 -59 list split 1;
#X obj 35 7 list append;
#X obj 34 -192 t l l b;
#X obj 34 -215 inlet;
#X obj 33 70 outlet;
#X obj 33 28 list split 24;
#X connect 0 0 3 0;
#X connect 0 1 1 0;
#X connect 1 0 0 0;
#X connect 2 0 4 0;
#X connect 2 0 6 1;
#X connect 3 0 2 0;
#X connect 4 0 2 1;
#X connect 5 0 2 1;
#X connect 6 0 10 0;
#X connect 7 0 9 0;
#X connect 8 0 13 0;
#X connect 8 1 10 1;
#X connect 9 0 6 0;
#X connect 9 1 7 0;
#X connect 10 0 14 0;
#X connect 11 0 9 0;
#X connect 11 1 0 0;
#X connect 11 2 5 0;
#X connect 12 0 11 0;
#X connect 14 0 8 0;
#X connect 14 2 10 1;
#X restore 157 298 pd normalize;
#X obj 193 191 inlet;
#X text 125 121 Is it necessary?;
#X connect 0 0 10 0;
#X connect 2 0 1 0;
#X connect 3 0 2 0;
#X connect 4 0 6 0;
#X connect 5 0 6 1;
#X connect 6 0 7 0;
#X connect 7 0 12 0;
#X connect 8 0 4 0;
#X connect 8 0 4 1;
#X connect 8 1 5 0;
#X connect 8 1 5 1;
#X connect 9 0 10 0;
#X connect 10 0 8 0;
#X connect 11 0 10 1;
#X connect 13 0 32 0;
#X connect 13 0 34 0;
#X connect 15 0 28 0;
#X connect 16 0 22 0;
#X connect 17 0 24 1;
#X connect 18 0 17 0;
#X connect 19 1 25 0;
#X connect 20 0 16 0;
#X connect 20 1 18 0;
#X connect 21 0 19 0;
#X connect 22 0 21 0;
#X connect 22 1 24 0;
#X connect 23 0 20 0;
#X connect 24 0 21 1;
#X connect 25 0 26 0;
#X connect 26 0 30 0;
#X connect 26 2 25 1;
#X connect 27 0 25 0;
#X connect 28 0 23 0;
#X connect 28 1 31 0;
#X connect 30 0 13 0;
#X connect 30 1 25 1;
#X connect 31 0 29 0;
#X connect 32 0 14 0;
#X connect 33 0 32 1;
#X connect 34 0 35 0;
#X connect 35 0 14 0;
#X connect 36 0 33 0;
#X connect 36 0 34 1;
#X restore 112 31 pd analysis;
#X obj 25 -11 *~;
#N canvas 0 22 450 300 rt 0;
#X obj 183 158 outlet;
#X msg 183 121 set \$1 \$2;
#X obj 164 42 inlet;
#X obj 164 70 t b l l;
#X obj 137 158 outlet;
#X msg 137 126 1;
#X obj 271 155 s \$0window-size;
#X obj 271 127 unpack;
#X obj 305 180 s \$0interp;
#X connect 1 0 0 0;
#X connect 2 0 3 0;
#X connect 3 0 5 0;
#X connect 3 1 1 0;
#X connect 3 2 7 0;
#X connect 5 0 4 0;
#X connect 7 0 6 0;
#X connect 7 1 8 0;
#X restore 113 -30 pd rt;
#X obj 65 62 outlet;
#X obj 152 -34 t a b;
#X msg 179 -11 0;
#X obj 301 -12 r \$0window-size;
#N canvas 572 342 507 248 Hann-window 0;
#N canvas 0 22 450 300 (subpatch) 0;
#X array \$0-hann 2048 float 0;
#X coords 0 1 2047 0 200 120 1;
#X restore 279 22 graph;
#X msg 165 58 resize \$1;
#X obj 165 82 s \$0-hann;
#X obj 29 -34 r \$0window-size;
#X obj 47 62 samplerate~;
#X obj 47 84 / 512;
#X obj 47 106 osc~;
#X obj 48 145 +~ 0.5;
#X obj 29 167 tabwrite~ \$0-hann;
#X msg 121 62 0;
#X obj 47 125 *~ -0.5;
#X obj 29 7 t b f;
#X obj 73 40 /;
#X obj 88 13 r \$0interp;
#X connect 1 0 2 0;
#X connect 3 0 11 0;
#X connect 4 0 5 0;
#X connect 5 0 6 0;
#X connect 6 0 10 0;
#X connect 7 0 8 0;
#X connect 9 0 6 1;
#X connect 10 0 7 0;
#X connect 11 0 9 0;
#X connect 11 0 4 0;
#X connect 11 0 8 0;
#X connect 11 1 12 0;
#X connect 11 1 1 0;
#X connect 12 0 5 1;
#X connect 13 0 12 1;
#X restore 299 -86 pd Hann-window;
#N canvas 444 238 454 339 barkwindow 0;
#X obj 115 123 samplerate~;
#X obj 24 177 expr 13*atan($f1*0.00076)+3.5*atan(pow($f1/7500 \, 2))
;
#X obj 24 225 change;
#X obj 24 199 i;
#X obj 25 264 i;
#N canvas 0 22 450 300 (subpatch) 0;
#X array \$0bark 25 float 3;
#A 0 0 5 10 15 20 25 31 37 43 51 59 68 79 92 107 126 150 178 212 252
298 354 426 531 1023;
#X coords 0 1024 25 0 200 140 1;
#X restore 233 17 graph;
#X obj 24 311 tabwrite \$0bark;
#X obj 24 287 min 1023;
#X obj 68 265 expr ($f1/2)-1;
#X obj 26 156 expr ($f1)*(($f2)/float($f3));
#X obj 25 245 b;
#X obj 23 10 r \$0window-size;
#X obj 25 105 until;
#X obj 26 129 f;
#X obj 53 130 + 1;
#X msg 65 99 0;
#X obj 23 33 t f f b b f;
#X msg 129 36 2048;
#X connect 0 0 9 1;
#X connect 1 0 3 0;
#X connect 2 0 10 0;
#X connect 3 0 6 1;
#X connect 3 0 2 0;
#X connect 4 0 7 0;
#X connect 7 0 6 0;
#X connect 8 0 7 1;
#X connect 9 0 1 0;
#X connect 10 0 4 0;
#X connect 11 0 16 0;
#X connect 12 0 13 0;
#X connect 13 0 14 0;
#X connect 13 0 4 1;
#X connect 13 0 9 0;
#X connect 14 0 13 1;
#X connect 15 0 13 1;
#X connect 16 0 12 0;
#X connect 16 1 8 0;
#X connect 16 2 15 0;
#X connect 16 3 0 0;
#X connect 16 4 9 2;
#X connect 17 0 16 0;
#X restore 395 -86 pd barkwindow;
#X obj 394 -63 import iem_tab;
#X obj 394 -42 import iemmatrix;
#X obj 113 -63 route rt table off normalize;
#X obj 395 38 / 2;
#X obj 395 59 + 1;
#X msg 395 81 resize \$1 \, const 0;
#X connect 1 0 22 0;
#X connect 3 0 2 0;
#X connect 3 1 2 0;
#X connect 4 0 5 0;
#X connect 5 0 2 0;
#X connect 6 0 12 0;
#X connect 7 0 10 0;
#X connect 11 0 14 0;
#X connect 11 0 3 0;
#X connect 12 0 11 0;
#X connect 13 0 12 1;
#X connect 13 0 2 0;
#X connect 13 1 2 0;
#X connect 15 0 3 1;
#X connect 15 1 16 0;
#X connect 16 0 12 1;
#X connect 16 0 2 0;
#X connect 17 0 7 0;
#X connect 17 0 23 0;
#X connect 22 0 13 0;
#X connect 22 1 15 0;
#X connect 22 2 4 0;
#X connect 22 3 11 1;
#X connect 23 0 24 0;
#X connect 24 0 25 0;
#X connect 25 0 8 0;
