#N canvas 585 90 487 270 10;
#X obj 360 -41 table one\$0;
#X obj 360 -19 table two\$0;
#X obj 113 -84 inlet;
#X obj 112 100 switch~;
#N canvas 407 21 537 478 table-rec 0;
#X obj 182 338 arraycopy block\$0;
#X obj 181 130 f;
#X obj 181 231 spigot;
#X obj 181 173 t f f;
#X obj 214 211 <;
#X obj 160 366 f;
#X obj 186 366 + 1;
#X msg 169 69 0;
#X obj 152 -43 inlet;
#X msg 54 367 set \$1;
#X obj 37 65 inlet;
#X obj 152 -19 unpack s s f f;
#X obj 370 136 / 512;
#X obj 207 130 + 512;
#X msg 309 84 set \$1;
#X obj 182 287 pack f s f;
#X msg 182 312 copy \$2 \$1 +\$3;
#X obj 37 158 outlet;
#X obj 152 43 t b b b s;
#X obj 230 188 - 1024;
#X obj 309 106 arraysize sound;
#X obj 25 397 tabwrite FeatureTable;
#X obj 37 99 spigot;
#X obj 37 123 t b b b f;
#N canvas 208 24 412 364 zeropad 0;
#X obj 156 48 log;
#X obj 141 81 /;
#X obj 156 6 loadbang;
#X floatatom 142 199 5 0 0 0 - - -;
#X obj 141 130 fmod 1;
#X obj 191 131 int;
#X obj 141 154 > 0;
#X obj 142 177 +;
#X obj 141 102 t f f;
#X msg 156 27 2;
#X msg 142 219 2 \$1;
#X obj 142 245 pow;
#X obj 126 47 log;
#X obj 126 -22 inlet;
#X obj 142 304 outlet;
#X msg 142 268 set \$1 1 1;
#X connect 0 0 1 1;
#X connect 1 0 8 0;
#X connect 2 0 9 0;
#X connect 3 0 10 0;
#X connect 4 0 6 0;
#X connect 5 0 7 1;
#X connect 6 0 7 0;
#X connect 7 0 3 0;
#X connect 8 0 4 0;
#X connect 8 1 5 0;
#X connect 9 0 0 0;
#X connect 10 0 11 0;
#X connect 11 0 15 0;
#X connect 12 0 1 0;
#X connect 13 0 12 0;
#X connect 15 0 14 0;
#X restore 315 6 pd zeropad;
#X obj 315 27 outlet;
#X obj 372 172 pack f s;
#X msg 372 195 \; \$2 resize \$1;
#X obj 206 8 s \$0window-size;
#X obj 234 50 s \$0hop-size;
#X obj 408 136 r \$0hop-size;
#X obj 235 108 r \$0hop-size;
#X obj 263 167 r \$0window-size;
#X obj 238 266 r \$0window-size;
#X obj 394 51 s \$0interp;
#X obj 393 10 b;
#X msg 394 31 1;
#X obj 118 89 del 1;
#X connect 1 0 3 0;
#X connect 1 0 13 0;
#X connect 2 0 15 0;
#X connect 3 0 2 0;
#X connect 3 1 4 0;
#X connect 4 0 2 1;
#X connect 4 0 22 1;
#X connect 5 0 6 0;
#X connect 5 0 21 1;
#X connect 6 0 5 1;
#X connect 7 0 1 0;
#X connect 7 0 5 0;
#X connect 8 0 11 0;
#X connect 9 0 21 0;
#X connect 10 0 22 0;
#X connect 11 0 18 0;
#X connect 11 1 9 0;
#X connect 11 1 26 1;
#X connect 11 2 24 0;
#X connect 11 2 28 0;
#X connect 11 3 29 0;
#X connect 11 3 35 0;
#X connect 12 0 26 0;
#X connect 13 0 1 1;
#X connect 14 0 20 0;
#X connect 15 0 16 0;
#X connect 16 0 0 0;
#X connect 18 0 37 0;
#X connect 18 1 7 0;
#X connect 18 2 20 0;
#X connect 18 3 14 0;
#X connect 18 3 15 1;
#X connect 19 0 4 1;
#X connect 20 0 19 0;
#X connect 20 0 12 0;
#X connect 22 0 23 0;
#X connect 23 0 17 0;
#X connect 23 1 1 0;
#X connect 23 2 5 0;
#X connect 23 3 21 0;
#X connect 24 0 25 0;
#X connect 26 0 27 0;
#X connect 30 0 12 1;
#X connect 31 0 13 1;
#X connect 32 0 19 1;
#X connect 33 0 15 2;
#X connect 35 0 36 0;
#X connect 36 0 34 0;
#X connect 37 0 17 0;
#X restore 112 61 pd table-rec;
#X obj 113 -63 route rt table off;
#X obj 245 46 b;
#X msg 245 70 0;
#X obj 25 -55 inlet~;
#X msg 359 53 resize \$1 \, const 0;
#X obj 357 76 s one\$0;
#X obj 357 96 s two\$0;
#X obj 360 4 table block\$0;
#X obj 356 118 s block\$0;
#N canvas 498 40 553 650 analysis 0;
#X obj 52 -15 *~;
#X obj 50 10 rfft~;
#X obj 42 39 *~;
#X obj 85 43 *~;
#X obj 56 88 sqrt~;
#X obj 56 64 +~;
#X obj 67 -37 tabreceive~ \$0-hann;
#X obj 58 449 bang~;
#X obj 45 422 tabsend~ one\$0;
#X obj 72 182 z~ \$1;
#X obj 102 398 tabsend~ two\$0;
#X obj 215 410 / 2;
#X obj 83 674 outlet;
#X obj 57 206 -~;
#X obj 96 228 abs~;
#X obj 100 268 -~;
#X obj 46 271 +~;
#X obj 99 294 *~ 0.5;
#X obj 45 296 *~ 0.5;
#X obj 100 318 abs~;
#X obj 44 318 abs~;
#X obj 98 345 *~;
#X obj 45 346 *~;
#X obj 44 372 rpole~ 1;
#X obj 102 376 rpole~ 1;
#X obj 48 498 f;
#X obj 140 495 f;
#X obj 48 522 tabread one\$0;
#X obj 140 521 tabread two\$0;
#X obj 215 431 - 1;
#X obj 140 546 sqrt;
#X obj 48 542 sqrt;
#X obj 83 566 -;
#X obj 83 588 t f f;
#X obj 110 610 abs;
#X obj 83 630 +;
#X obj 83 651 / 2;
#X obj 57 469 t b b b;
#X msg 115 466 clear;
#X obj 51 -60 tabreceive~ block\$0;
#X obj 267 135 block~;
#X msg 267 110 set \$1 1 1;
#X obj 6 -60 inlet~;
#X obj 267 79 r \$0window-size;
#X obj 57 132 /~;
#X connect 0 0 1 0;
#X connect 1 0 2 0;
#X connect 1 0 2 1;
#X connect 1 1 3 0;
#X connect 1 1 3 1;
#X connect 2 0 5 0;
#X connect 3 0 5 1;
#X connect 4 0 44 0;
#X connect 5 0 4 0;
#X connect 6 0 0 1;
#X connect 7 0 37 0;
#X connect 9 0 13 1;
#X connect 11 0 29 0;
#X connect 13 0 14 0;
#X connect 13 0 15 0;
#X connect 13 0 16 0;
#X connect 14 0 15 1;
#X connect 14 0 16 1;
#X connect 15 0 17 0;
#X connect 16 0 18 0;
#X connect 17 0 19 0;
#X connect 18 0 20 0;
#X connect 19 0 21 1;
#X connect 19 0 21 0;
#X connect 20 0 22 1;
#X connect 20 0 22 0;
#X connect 21 0 24 0;
#X connect 22 0 23 0;
#X connect 23 0 8 0;
#X connect 24 0 10 0;
#X connect 25 0 27 0;
#X connect 26 0 28 0;
#X connect 27 0 31 0;
#X connect 28 0 30 0;
#X connect 29 0 26 1;
#X connect 29 0 25 1;
#X connect 30 0 32 1;
#X connect 31 0 32 0;
#X connect 32 0 33 0;
#X connect 33 0 35 0;
#X connect 33 1 34 0;
#X connect 34 0 35 1;
#X connect 35 0 36 0;
#X connect 36 0 12 0;
#X connect 37 0 25 0;
#X connect 37 1 26 0;
#X connect 37 2 38 0;
#X connect 38 0 24 0;
#X connect 38 0 23 0;
#X connect 39 0 0 0;
#X connect 41 0 40 0;
#X connect 42 0 0 0;
#X connect 43 0 41 0;
#X connect 43 0 9 1;
#X connect 43 0 11 0;
#X connect 43 0 44 1;
#X connect 44 0 9 0;
#X connect 44 0 13 0;
#X restore 112 35 pd analysis;
#X obj 25 -11 *~;
#N canvas 0 0 450 300 rt 0;
#X obj 183 158 outlet;
#X msg 183 121 set \$1 \$2;
#X obj 164 42 inlet;
#X obj 164 70 t b l l;
#X obj 137 158 outlet;
#X msg 137 126 1;
#X obj 281 165 s \$0window-size;
#X obj 281 137 unpack;
#X obj 315 190 s \$0interp;
#X connect 1 0 0 0;
#X connect 2 0 3 0;
#X connect 3 0 5 0;
#X connect 3 1 1 0;
#X connect 3 2 7 0;
#X connect 5 0 4 0;
#X connect 7 0 6 0;
#X connect 7 1 8 0;
#X restore 113 -30 pd rt;
#X obj 65 66 outlet;
#X obj 152 -34 t a b;
#X msg 179 -11 0;
#X obj 359 28 r \$0window-size;
#N canvas 572 342 507 248 Hann-window 0;
#N canvas 0 0 450 300 (subpatch) 0;
#X array \$0-hann 2048 float 0;
#X coords 0 1 2047 0 200 120 1;
#X restore 279 22 graph;
#X msg 165 58 resize \$1;
#X obj 165 82 s \$0-hann;
#X obj 29 -34 r \$0window-size;
#X obj 47 62 samplerate~;
#X obj 47 84 / 512;
#X obj 47 106 osc~;
#X obj 48 145 +~ 0.5;
#X obj 29 167 tabwrite~ \$0-hann;
#X msg 121 62 0;
#X obj 47 125 *~ -0.5;
#X obj 29 7 t b f;
#X obj 73 40 /;
#X obj 88 13 r \$0interp;
#X connect 1 0 2 0;
#X connect 3 0 11 0;
#X connect 4 0 5 0;
#X connect 5 0 6 0;
#X connect 6 0 10 0;
#X connect 7 0 8 0;
#X connect 9 0 6 1;
#X connect 10 0 7 0;
#X connect 11 0 9 0;
#X connect 11 0 4 0;
#X connect 11 0 8 0;
#X connect 11 1 12 0;
#X connect 11 1 1 0;
#X connect 12 0 5 1;
#X connect 13 0 12 1;
#X restore 360 -65 pd Hann-window;
#X connect 2 0 5 0;
#X connect 4 0 3 0;
#X connect 4 1 3 0;
#X connect 5 0 16 0;
#X connect 5 1 18 0;
#X connect 5 2 6 0;
#X connect 6 0 7 0;
#X connect 7 0 3 0;
#X connect 8 0 15 0;
#X connect 9 0 10 0;
#X connect 9 0 11 0;
#X connect 9 0 13 0;
#X connect 14 0 4 0;
#X connect 14 0 17 0;
#X connect 15 0 14 0;
#X connect 16 0 15 1;
#X connect 16 0 3 0;
#X connect 16 1 3 0;
#X connect 18 0 4 1;
#X connect 18 1 19 0;
#X connect 19 0 15 1;
#X connect 19 0 3 0;
#X connect 20 0 9 0;
