#N canvas 553 4 481 568 10;
#X obj 370 11 bng 15 250 50 0 empty empty insert_sound 17 7 0 10 -262144
-1 -1;
#X obj 374 179 nbx 5 14 -1e+037 1e+037 0 1 scale empty Scale 0 -8 0
10 -262144 -1 -1 0.1 256;
#N canvas 630 218 343 285 player 0;
#X obj 52 169 outlet~;
#X obj 49 133 dac~;
#X obj 70 -38 inlet;
#X obj 134 196 s guia;
#X msg 190 44 range 0 \$1;
#X obj 185 118 bang~;
#X obj 185 139 spigot;
#X obj 236 118 tgl 15 0 empty empty empty 17 7 0 10 -262144 -1 -1 0
1;
#X msg 172 83 1;
#X msg 210 88 0;
#X obj 176 172 + 64;
#X obj 149 173 f;
#X obj 70 -16 t b b;
#X obj 71 38 tabplay~ sound;
#X obj 131 6 arraysize sound;
#X connect 2 0 12 0;
#X connect 4 0 3 0;
#X connect 5 0 6 0;
#X connect 6 0 11 0;
#X connect 7 0 6 1;
#X connect 8 0 7 0;
#X connect 9 0 7 0;
#X connect 9 0 11 1;
#X connect 10 0 11 1;
#X connect 11 0 10 0;
#X connect 11 0 3 0;
#X connect 12 0 8 0;
#X connect 12 0 13 0;
#X connect 12 1 14 0;
#X connect 13 0 1 0;
#X connect 13 0 1 1;
#X connect 13 0 0 0;
#X connect 13 1 9 0;
#X connect 14 0 4 0;
#X restore 22 371 pd player;
#X obj 22 347 bng 15 250 50 0 empty empty Play 17 7 0 10 -262144 -1
-1;
#X obj 19 8 hsl 345 300 0 164636 0 0 empty guia empty -2 -8 0 10 -262144
-258113 -1 0 1;
#N canvas 0 0 450 300 (subpatch) 0;
#X array DifferenceFlux 1 float 1;
#A 0 0;
#X coords 0 0.1 1 0 350 140 1;
#X restore 16 167 graph;
#X floatatom 374 216 8 0 0 2 Sample - -;
#X floatatom 374 261 8 0 0 1 - - -;
#N canvas 0 0 450 300 (subpatch) 0;
#X array sound 1 float 2;
#X coords 0 1 1 -1 350 140 1;
#X restore 16 8 graph;
#N canvas 136 89 215 186 sample 0;
#X obj 50 84 soundfiler;
#X obj 50 13 inlet;
#X obj 50 34 openpanel;
#X msg 50 61 read -resize \$1 sound;
#X connect 1 0 2 0;
#X connect 2 0 3 0;
#X connect 3 0 0 0;
#X restore 370 29 pd sample;
#X floatatom 22 422 9 0 200 1 real-time - -;
#X text 15 -46 based on Mazurka Project: http://mazurka.org.uk/software/sv/plugin/MzSpectralFlux/
;
#X text 13 -83 Difference Flux;
#X text 11 -65 The difference between positive and negative flux;
#X msg 160 341 rt 1024 2;
#X msg 159 386 off;
#X obj 22 398 Difflux~;
#N canvas 344 435 807 210 plot 0;
#X obj 16 31 t b f;
#X obj 16 90 pack f 5000;
#X msg 16 120 bounds 0 \$2 \$1 0;
#X obj 16 10 r scale;
#X obj 387 140 s guia;
#X obj 191 38 inlet;
#X obj 191 98 outlet;
#X obj 191 75 tabread DifferenceFlux;
#X obj 16 60 arraysize DifferenceFlux;
#X obj 15 150 s DifferenceFlux;
#X connect 0 0 8 0;
#X connect 0 1 1 1;
#X connect 1 0 2 0;
#X connect 2 0 9 0;
#X connect 3 0 0 0;
#X connect 5 0 4 0;
#X connect 5 0 7 0;
#X connect 7 0 6 0;
#X connect 8 0 1 0;
#X restore 374 236 pd plot;
#X msg 158 364 table sound DifferenceFlux 2048 512;
#X text 137 467 by Adriano Monteiro (06/2012)- monteiro.adc@gmail.com
;
#X connect 0 0 9 0;
#X connect 2 0 16 0;
#X connect 3 0 2 0;
#X connect 6 0 17 0;
#X connect 14 0 16 1;
#X connect 15 0 16 1;
#X connect 16 0 10 0;
#X connect 17 0 7 0;
#X connect 18 0 16 1;
