#N canvas 685 121 454 219 10;
#X obj 307 -41 table one\$0;
#X obj 113 -84 inlet;
#X obj 112 100 switch~;
#N canvas 407 21 537 478 table-rec 0;
#X obj 182 338 arraycopy block\$0;
#X obj 181 130 f;
#X obj 181 231 spigot;
#X obj 181 173 t f f;
#X obj 214 211 <;
#X obj 160 366 f;
#X obj 186 366 + 1;
#X msg 169 69 0;
#X obj 152 -43 inlet;
#X msg 54 367 set \$1;
#X obj 37 65 inlet;
#X obj 152 -19 unpack s s f f;
#X obj 370 136 / 512;
#X obj 207 130 + 512;
#X msg 309 84 set \$1;
#X obj 182 287 pack f s f;
#X msg 182 312 copy \$2 \$1 +\$3;
#X obj 37 158 outlet;
#X obj 152 43 t b b b s;
#X obj 230 188 - 1024;
#X obj 309 106 arraysize sound;
#X obj 25 397 tabwrite FeatureTable;
#X obj 37 99 spigot;
#X obj 37 123 t b b b f;
#N canvas 208 24 412 364 zeropad 0;
#X obj 156 48 log;
#X obj 141 81 /;
#X obj 156 6 loadbang;
#X floatatom 142 199 5 0 0 0 - - -;
#X obj 141 130 fmod 1;
#X obj 191 131 int;
#X obj 141 154 > 0;
#X obj 142 177 +;
#X obj 141 102 t f f;
#X msg 156 27 2;
#X msg 142 219 2 \$1;
#X obj 142 245 pow;
#X obj 126 47 log;
#X obj 126 -22 inlet;
#X obj 142 304 outlet;
#X msg 142 268 set \$1 1 1;
#X connect 0 0 1 1;
#X connect 1 0 8 0;
#X connect 2 0 9 0;
#X connect 3 0 10 0;
#X connect 4 0 6 0;
#X connect 5 0 7 1;
#X connect 6 0 7 0;
#X connect 7 0 3 0;
#X connect 8 0 4 0;
#X connect 8 1 5 0;
#X connect 9 0 0 0;
#X connect 10 0 11 0;
#X connect 11 0 15 0;
#X connect 12 0 1 0;
#X connect 13 0 12 0;
#X connect 15 0 14 0;
#X restore 315 6 pd zeropad;
#X obj 315 27 outlet;
#X obj 372 172 pack f s;
#X msg 372 195 \; \$2 resize \$1;
#X obj 206 8 s \$0window-size;
#X obj 234 50 s \$0hop-size;
#X obj 408 136 r \$0hop-size;
#X obj 235 108 r \$0hop-size;
#X obj 263 167 r \$0window-size;
#X obj 238 266 r \$0window-size;
#X obj 394 51 s \$0interp;
#X obj 393 10 b;
#X msg 394 31 1;
#X obj 109 76 del 1;
#X connect 1 0 3 0;
#X connect 1 0 13 0;
#X connect 2 0 15 0;
#X connect 3 0 2 0;
#X connect 3 1 4 0;
#X connect 4 0 2 1;
#X connect 4 0 22 1;
#X connect 5 0 6 0;
#X connect 5 0 21 1;
#X connect 6 0 5 1;
#X connect 7 0 1 0;
#X connect 7 0 5 0;
#X connect 8 0 11 0;
#X connect 9 0 21 0;
#X connect 10 0 22 0;
#X connect 11 0 18 0;
#X connect 11 1 9 0;
#X connect 11 1 26 1;
#X connect 11 2 24 0;
#X connect 11 2 28 0;
#X connect 11 3 29 0;
#X connect 11 3 35 0;
#X connect 12 0 26 0;
#X connect 13 0 1 1;
#X connect 14 0 20 0;
#X connect 15 0 16 0;
#X connect 16 0 0 0;
#X connect 18 0 37 0;
#X connect 18 1 7 0;
#X connect 18 2 20 0;
#X connect 18 3 14 0;
#X connect 18 3 15 1;
#X connect 19 0 4 1;
#X connect 20 0 19 0;
#X connect 20 0 12 0;
#X connect 22 0 23 0;
#X connect 23 0 17 0;
#X connect 23 1 1 0;
#X connect 23 2 5 0;
#X connect 23 3 21 0;
#X connect 24 0 25 0;
#X connect 26 0 27 0;
#X connect 30 0 12 1;
#X connect 31 0 13 1;
#X connect 32 0 19 1;
#X connect 33 0 15 2;
#X connect 35 0 36 0;
#X connect 36 0 34 0;
#X connect 37 0 17 0;
#X restore 112 63 pd table-rec;
#X obj 113 -63 route rt table off;
#X obj 245 46 b;
#X msg 245 70 0;
#X obj 25 -55 inlet~;
#X msg 306 30 resize \$1 \, const 0;
#X obj 304 53 s one\$0;
#X obj 305 -21 table block\$0;
#X obj 302 73 s block\$0;
#N canvas 561 134 365 485 analysis 0;
#X obj -23 -31 tabreceive~ block\$0;
#X obj 149 94 block~;
#X msg 149 69 set \$1 1 1;
#X obj 149 38 r \$0window-size;
#X obj -35 9 *~;
#X obj -34 -52 inlet~;
#X obj -20 -10 tabreceive~ \$0-hann;
#X obj -35 267 bang~;
#X obj -35 336 /;
#X obj -35 384 outlet;
#X obj -35 27 rfft~;
#X obj -47 56 *~;
#X obj -5 51 *~;
#X obj -31 79 +~;
#X obj -32 101 sqrt~;
#X obj -31 126 abs~;
#X obj -37 154 *~;
#X obj -37 196 *~;
#X obj -23 175 tabreceive~ \$0freq;
#X obj -38 244 tabsend~ one\$0;
#X obj -35 313 tabread one\$0;
#X obj -35 290 f;
#X obj -37 223 rpole~ 1;
#X msg -82 288 clear;
#X obj 116 68 / 2;
#X obj -35 359 t f b;
#X obj -9 291 + 1;
#X connect 0 0 4 0;
#X connect 2 0 1 0;
#X connect 3 0 2 0;
#X connect 3 0 24 0;
#X connect 4 0 10 0;
#X connect 5 0 4 0;
#X connect 6 0 4 1;
#X connect 7 0 21 0;
#X connect 8 0 25 0;
#X connect 10 0 11 0;
#X connect 10 0 11 1;
#X connect 10 1 12 0;
#X connect 10 1 12 1;
#X connect 11 0 13 0;
#X connect 12 0 13 1;
#X connect 13 0 14 0;
#X connect 14 0 15 0;
#X connect 15 0 16 1;
#X connect 15 0 16 0;
#X connect 16 0 17 0;
#X connect 17 0 22 0;
#X connect 18 0 17 1;
#X connect 20 0 8 0;
#X connect 21 0 20 0;
#X connect 22 0 19 0;
#X connect 23 0 22 0;
#X connect 24 0 8 1;
#X connect 24 0 26 0;
#X connect 25 0 9 0;
#X connect 25 1 23 0;
#X connect 26 0 21 1;
#X restore 112 33 pd analysis;
#X obj 25 -11 *~;
#N canvas 0 0 450 300 rt 0;
#X obj 183 158 outlet;
#X msg 183 121 set \$1 \$2;
#X obj 164 42 inlet;
#X obj 164 70 t b l l;
#X obj 137 158 outlet;
#X msg 137 126 1;
#X obj 281 165 s \$0window-size;
#X obj 281 137 unpack;
#X obj 315 190 s \$0interp;
#X connect 1 0 0 0;
#X connect 2 0 3 0;
#X connect 3 0 5 0;
#X connect 3 1 1 0;
#X connect 3 2 7 0;
#X connect 5 0 4 0;
#X connect 7 0 6 0;
#X connect 7 1 8 0;
#X restore 113 -30 pd rt;
#X obj 65 62 outlet;
#X obj 152 -34 t a b;
#X msg 179 -11 0;
#X obj 306 5 r \$0window-size;
#N canvas 572 342 507 248 Hann-window 0;
#N canvas 0 0 450 300 (subpatch) 0;
#X array \$0-hann 1024 float 0;
#X coords 0 1 1023 0 200 120 1;
#X restore 279 22 graph;
#X msg 165 58 resize \$1;
#X obj 165 82 s \$0-hann;
#X obj 29 -34 r \$0window-size;
#X obj 47 62 samplerate~;
#X obj 47 84 / 512;
#X obj 47 106 osc~;
#X obj 48 145 +~ 0.5;
#X obj 29 167 tabwrite~ \$0-hann;
#X msg 121 62 0;
#X obj 47 125 *~ -0.5;
#X obj 29 7 t b f;
#X obj 73 40 /;
#X obj 88 13 r \$0interp;
#X connect 1 0 2 0;
#X connect 3 0 11 0;
#X connect 4 0 5 0;
#X connect 5 0 6 0;
#X connect 6 0 10 0;
#X connect 7 0 8 0;
#X connect 9 0 6 1;
#X connect 10 0 7 0;
#X connect 11 0 9 0;
#X connect 11 0 4 0;
#X connect 11 0 8 0;
#X connect 11 1 12 0;
#X connect 11 1 1 0;
#X connect 12 0 5 1;
#X connect 13 0 12 1;
#X restore 309 -86 pd Hann-window;
#N canvas 540 276 469 231 freqwindow 0;
#N canvas 0 0 450 300 (subpatch) 0;
#X array \$0freq 1024 float 2;
#X coords 0 44100 1024 0 200 140 1;
#X restore 234 -35 graph;
#X msg 153 45 resize \$1;
#X obj 16 -29 r \$0window-size;
#X obj 35 51 samplerate~;
#X obj 36 74 / 512;
#X msg 109 51 0;
#X obj 16 -5 t b f;
#X obj 35 95 phasor~;
#X obj 34 118 *~;
#X obj 153 69 s \$0freq;
#X obj 17 143 tabwrite~ \$0freq;
#X obj 62 27 /;
#X obj 77 3 r \$0interp;
#X connect 1 0 9 0;
#X connect 2 0 6 0;
#X connect 3 0 8 1;
#X connect 3 0 4 0;
#X connect 4 0 7 0;
#X connect 5 0 7 1;
#X connect 6 0 5 0;
#X connect 6 0 3 0;
#X connect 6 0 10 0;
#X connect 6 1 1 0;
#X connect 6 1 11 0;
#X connect 7 0 8 0;
#X connect 8 0 10 0;
#X connect 11 0 4 1;
#X connect 12 0 11 1;
#X restore 308 -66 pd freqwindow;
#X connect 1 0 4 0;
#X connect 3 0 2 0;
#X connect 3 1 2 0;
#X connect 4 0 14 0;
#X connect 4 1 16 0;
#X connect 4 2 5 0;
#X connect 5 0 6 0;
#X connect 6 0 2 0;
#X connect 7 0 13 0;
#X connect 8 0 9 0;
#X connect 8 0 11 0;
#X connect 12 0 3 0;
#X connect 12 0 15 0;
#X connect 13 0 12 0;
#X connect 14 0 13 1;
#X connect 14 0 2 0;
#X connect 14 1 2 0;
#X connect 16 0 3 1;
#X connect 16 1 17 0;
#X connect 17 0 13 1;
#X connect 17 0 2 0;
#X connect 18 0 8 0;
