#N canvas 674 433 474 315 10;
#X obj 127 -33 inlet;
#X obj 134 231 switch~;
#N canvas 674 39 413 531 table-rec 0;
#X obj 182 363 arraycopy block\$0;
#X obj 180 127 f;
#X obj 181 281 spigot;
#X obj 160 394 f;
#X msg 163 73 0;
#X obj 152 -43 inlet;
#X obj 33 -4 inlet;
#X obj 35 168 outlet;
#X obj 35 132 spigot;
#X obj 299 157 pack s f;
#X msg 299 180 \; \$1 resize \$2;
#X obj 231 202 +;
#X obj 174 12 t f f;
#X obj 186 395 + 1;
#X obj 215 230 <;
#X obj 152 43 t b b b s;
#X obj 180 167 t f f;
#X msg 182 337 copy \$2 \$1 +64;
#X obj 182 312 pack f s;
#X obj 152 -19 unpack s f s f;
#X obj 206 127 + 64;
#X obj 253 177 * 64;
#X obj 33 39 t b b b f;
#X obj 74 438 tabwrite;
#X msg 98 392 set \$1;
#X connect 1 0 16 0;
#X connect 1 0 20 0;
#X connect 2 0 18 0;
#X connect 3 0 13 0;
#X connect 3 0 23 1;
#X connect 4 0 3 0;
#X connect 5 0 19 0;
#X connect 6 0 22 0;
#X connect 8 0 7 0;
#X connect 9 0 10 0;
#X connect 11 0 14 1;
#X connect 12 0 1 0;
#X connect 12 1 11 0;
#X connect 13 0 3 1;
#X connect 14 0 8 1;
#X connect 14 0 2 1;
#X connect 15 0 7 0;
#X connect 15 1 4 0;
#X connect 15 3 18 1;
#X connect 16 0 2 0;
#X connect 16 1 14 0;
#X connect 17 0 0 0;
#X connect 18 0 17 0;
#X connect 19 0 15 0;
#X connect 19 1 12 0;
#X connect 19 2 9 0;
#X connect 19 2 24 0;
#X connect 19 3 9 1;
#X connect 19 3 21 0;
#X connect 20 0 1 1;
#X connect 21 0 11 1;
#X connect 22 0 8 0;
#X connect 22 1 1 0;
#X connect 22 2 3 0;
#X connect 22 3 23 0;
#X connect 24 0 23 0;
#X restore 132 122 pd table-rec;
#N canvas 684 130 492 520 analysis 0;
#X obj 54 194 outlet;
#X obj -85 -196 inlet~;
#X obj 21 -97 unpack f f f;
#X obj 115 -47 pow 2;
#X obj 15 91 +;
#X obj 46 92 f;
#X obj 137 98 +;
#X obj 168 99 f;
#X obj 53 171 /;
#X obj 21 -74 t f f;
#X obj 0 126 f;
#X obj 122 122 f;
#X obj 39 48 t b b;
#X msg 42 66 0;
#X obj 21 -48 mod 2;
#X obj 35 -5 pack f f;
#X obj 35 17 route 1 0;
#X obj 67 -46 sel 1;
#X obj -84 -127 fiddle~ \$1 1 \$2 \$2;
#X floatatom 143 -79 5 0 0 0 - - -;
#X floatatom -64 -25 5 0 0 0 - - -;
#X obj -16 -175 tabreceive~ block\$0;
#X floatatom 145 185 5 0 0 0 - - -;
#X connect 1 0 18 0;
#X connect 2 0 9 0;
#X connect 2 0 20 0;
#X connect 2 2 3 0;
#X connect 2 2 19 0;
#X connect 3 0 15 1;
#X connect 4 0 5 0;
#X connect 4 0 10 1;
#X connect 5 0 4 1;
#X connect 6 0 7 0;
#X connect 6 0 11 1;
#X connect 7 0 6 1;
#X connect 8 0 0 0;
#X connect 8 0 22 0;
#X connect 9 0 14 0;
#X connect 9 1 17 0;
#X connect 10 0 8 0;
#X connect 11 0 8 1;
#X connect 12 0 13 0;
#X connect 12 1 10 0;
#X connect 12 1 11 0;
#X connect 13 0 4 1;
#X connect 13 0 6 1;
#X connect 14 0 15 0;
#X connect 15 0 16 0;
#X connect 16 0 4 0;
#X connect 16 1 6 0;
#X connect 17 0 12 0;
#X connect 21 0 18 0;
#X restore 132 97 pd analysis;
#X obj 85 126 outlet;
#X obj 28 -2 inlet~;
#X obj 28 42 *~;
#X obj 228 96 b;
#X msg 228 120 0;
#N canvas 576 69 415 207 rt 0;
#X obj 181 168 outlet;
#X msg 181 145 set \$1 \$2;
#X obj 167 1 inlet;
#X obj 167 29 t b l l;
#X obj 94 136 outlet;
#X msg 94 104 1;
#X obj 290 108 s \$0window-size;
#X obj 290 80 unpack;
#X obj 324 133 s \$0interp;
#X obj 225 103 /;
#X obj 185 66 unpack f f;
#X obj 184 87 t f f;
#X obj 183 125 pack f f;
#X connect 2 0 3 0;
#X connect 3 0 5 0;
#X connect 3 1 10 0;
#X connect 3 2 7 0;
#X connect 5 0 4 0;
#X connect 7 0 6 0;
#X connect 7 1 8 0;
#X connect 9 0 12 1;
#X connect 10 0 11 0;
#X connect 10 1 9 1;
#X connect 11 0 12 0;
#X connect 11 1 9 0;
#X connect 12 0 1 0;
#X restore 129 23 pd rt;
#X obj 167 21 t a b;
#X msg 195 42 0;
#X obj 127 -11 route rt table off;
#X obj 315 8 table block\$0 64;
#X obj 133 146 \$1;
#X obj 133 167 / 64;
#X obj 133 190 until;
#X connect 0 0 12 0;
#X connect 2 0 14 0;
#X connect 3 0 2 0;
#X connect 3 0 4 0;
#X connect 5 0 6 0;
#X connect 6 0 3 0;
#X connect 7 0 8 0;
#X connect 8 0 1 0;
#X connect 9 0 1 0;
#X connect 9 0 6 1;
#X connect 10 0 2 1;
#X connect 10 1 11 0;
#X connect 11 0 6 1;
#X connect 11 0 1 0;
#X connect 12 0 9 0;
#X connect 12 1 10 0;
#X connect 12 2 7 0;
#X connect 14 0 15 0;
#X connect 15 0 16 0;
#X connect 16 0 1 0;
