#N canvas 669 175 594 316 10;
#X obj 127 -33 inlet;
#X obj 132 164 switch~;
#N canvas 619 111 524 469 table-rec 0;
#X obj 182 363 arraycopy block\$0;
#X obj 180 127 f;
#X obj 181 281 spigot;
#X obj 160 394 f;
#X msg 163 73 0;
#X obj 152 -43 inlet;
#X obj 35 58 inlet;
#X obj 206 127 + 512;
#X obj 182 312 pack f s f;
#X msg 182 337 copy \$2 \$1 +\$3;
#X obj 35 168 outlet;
#X obj 35 132 spigot;
#N canvas 208 24 412 364 zeropad 0;
#X obj 156 48 log;
#X obj 141 81 /;
#X obj 156 6 loadbang;
#X floatatom 142 199 5 0 0 0 - - -;
#X obj 141 130 fmod 1;
#X obj 191 131 int;
#X obj 141 154 > 0;
#X obj 142 177 +;
#X obj 141 102 t f f;
#X msg 156 27 2;
#X msg 142 219 2 \$1;
#X obj 142 245 pow;
#X obj 126 47 log;
#X obj 126 -22 inlet;
#X obj 142 304 outlet;
#X msg 142 268 set \$1 1 1;
#X connect 0 0 1 1;
#X connect 1 0 8 0;
#X connect 2 0 9 0;
#X connect 3 0 10 0;
#X connect 4 0 6 0;
#X connect 5 0 7 1;
#X connect 6 0 7 0;
#X connect 7 0 3 0;
#X connect 8 0 4 0;
#X connect 8 1 5 0;
#X connect 9 0 0 0;
#X connect 10 0 11 0;
#X connect 11 0 15 0;
#X connect 12 0 1 0;
#X connect 13 0 12 0;
#X connect 15 0 14 0;
#X restore 374 4 pd zeropad;
#X obj 374 27 outlet;
#X obj 236 35 s \$0window-size;
#X obj 288 61 s \$0hop-size;
#X obj 274 100 r \$0hop-size;
#X obj 238 291 r \$0window-size;
#X obj 449 27 s \$0interp;
#X obj 448 -14 b;
#X msg 449 7 1;
#X obj 65 431 s;
#X obj 65 398 prepend;
#X obj 35 101 t b b b l;
#X obj 152 -19 unpack s f s f f f;
#X obj 390 172 pack s f;
#X msg 390 195 \; \$1 resize \$2;
#X obj 252 159 *;
#X obj 231 185 +;
#X obj 174 12 t f f;
#X obj 186 395 + 1;
#X obj 252 137 - 1;
#X obj 215 230 <;
#X obj 152 43 t b b b s;
#X obj 180 167 t f f;
#X connect 1 0 7 0;
#X connect 1 0 34 0;
#X connect 2 0 8 0;
#X connect 3 0 22 1;
#X connect 3 0 30 0;
#X connect 4 0 3 0;
#X connect 5 0 24 0;
#X connect 6 0 23 0;
#X connect 7 0 1 1;
#X connect 8 0 9 0;
#X connect 9 0 0 0;
#X connect 11 0 10 0;
#X connect 12 0 13 0;
#X connect 16 0 7 1;
#X connect 16 0 27 1;
#X connect 17 0 8 2;
#X connect 19 0 20 0;
#X connect 20 0 18 0;
#X connect 22 0 21 0;
#X connect 23 0 11 0;
#X connect 23 1 1 0;
#X connect 23 2 3 0;
#X connect 23 3 22 0;
#X connect 24 0 33 0;
#X connect 24 1 29 0;
#X connect 24 2 21 1;
#X connect 24 2 25 0;
#X connect 24 3 25 1;
#X connect 24 3 31 0;
#X connect 24 4 12 0;
#X connect 24 4 14 0;
#X connect 24 5 19 0;
#X connect 24 5 15 0;
#X connect 25 0 26 0;
#X connect 27 0 28 1;
#X connect 28 0 32 1;
#X connect 29 0 1 0;
#X connect 29 1 28 0;
#X connect 30 0 3 1;
#X connect 31 0 27 0;
#X connect 32 0 11 1;
#X connect 32 0 2 1;
#X connect 33 0 10 0;
#X connect 33 1 4 0;
#X connect 33 3 8 1;
#X connect 34 0 2 0;
#X connect 34 1 32 0;
#X restore 132 120 pd table-rec;
#N canvas 129 22 302 367 analysis 0;
#X obj -13 -259 tabreceive~ block\$0;
#X obj -78 -253 inlet~;
#X obj -36 -169 bang~;
#X obj -33 -3 /;
#X obj -33 38 outlet;
#X obj -44 -71 tabsend~ one\$0;
#X obj -33 18 sqrt;
#X obj -45 -210 *~;
#X obj -43 -94 rpole~ 1;
#X obj -36 -147 t b b;
#X msg -9 -122 clear;
#X obj -33 -46 \$1;
#X obj -33 -25 tabread one\$0;
#X obj 80 -169 r \$0window-size;
#X obj 80 -100 block~;
#X msg 80 -125 set \$1 1 1;
#X connect 0 0 7 0;
#X connect 0 0 7 1;
#X connect 1 0 7 1;
#X connect 1 0 7 0;
#X connect 2 0 9 0;
#X connect 3 0 6 0;
#X connect 6 0 4 0;
#X connect 7 0 8 0;
#X connect 8 0 5 0;
#X connect 9 0 11 0;
#X connect 9 1 10 0;
#X connect 10 0 8 0;
#X connect 11 0 12 0;
#X connect 12 0 3 0;
#X connect 13 0 11 1;
#X connect 13 0 3 1;
#X connect 13 0 15 0;
#X connect 15 0 14 0;
#X restore 132 97 pd analysis;
#X obj 85 126 outlet;
#X obj 317 -12 table one\$0;
#X msg 317 55 resize \$1 \, const 0;
#X obj 319 78 s one\$0;
#X obj 317 31 r \$0window-size;
#X obj 28 -2 inlet~;
#X obj 28 42 *~;
#X obj 228 96 b;
#X msg 228 120 0;
#N canvas 576 69 415 207 rt 0;
#X obj 181 168 outlet;
#X msg 181 145 set \$1 \$2;
#X obj 167 1 inlet;
#X obj 167 29 t b l l;
#X obj 94 136 outlet;
#X msg 94 104 1;
#X obj 290 108 s \$0window-size;
#X obj 290 80 unpack;
#X obj 324 133 s \$0interp;
#X obj 225 103 /;
#X obj 185 66 unpack f f;
#X obj 184 87 t f f;
#X obj 183 125 pack f f;
#X connect 1 0 0 0;
#X connect 2 0 3 0;
#X connect 3 0 5 0;
#X connect 3 1 10 0;
#X connect 3 2 7 0;
#X connect 5 0 4 0;
#X connect 7 0 6 0;
#X connect 7 1 8 0;
#X connect 9 0 12 1;
#X connect 10 0 11 0;
#X connect 10 1 9 1;
#X connect 11 0 12 0;
#X connect 11 1 9 0;
#X connect 12 0 1 0;
#X restore 129 23 pd rt;
#X obj 167 21 t a b;
#X msg 195 42 0;
#X obj 317 7 table block\$0;
#X obj 317 100 s block\$0;
#X obj 127 -11 route rt table off;
#X connect 0 0 18 0;
#X connect 2 0 1 0;
#X connect 2 1 1 0;
#X connect 3 0 2 0;
#X connect 3 0 4 0;
#X connect 6 0 7 0;
#X connect 6 0 17 0;
#X connect 8 0 6 0;
#X connect 9 0 10 0;
#X connect 10 0 3 0;
#X connect 11 0 12 0;
#X connect 12 0 1 0;
#X connect 13 0 1 0;
#X connect 13 0 10 1;
#X connect 13 1 1 0;
#X connect 14 0 2 1;
#X connect 14 1 15 0;
#X connect 15 0 10 1;
#X connect 15 0 1 0;
#X connect 18 0 13 0;
#X connect 18 1 14 0;
#X connect 18 2 11 0;
