#N canvas 343 13 866 559 10;
#X declare -lib iem_tab;
#X declare -lib iemmatrix;
#X obj 776 -12 dsp~;
#X floatatom 776 10 5 0 0 1 %_CPU - -;
#X obj 373 62 bng 15 250 50 0 empty empty insert_sound 17 7 0 10 -262144
-1 -1;
#N canvas 0 0 215 140 sound1 0;
#X obj 51 90 soundfiler;
#X obj 51 16 inlet;
#X msg 51 66 read -resize \$1 sound;
#X obj 51 40 openpanel;
#X connect 1 0 3 0;
#X connect 2 0 0 0;
#X connect 3 0 2 0;
#X restore 373 85 pd sound1;
#X obj 375 219 nbx 8 14 -1e+037 1e+037 0 1 scale empty Scale(Hz) 0
-8 0 10 -262144 -1 -1 60 256;
#X obj 20 48 hsl 345 140 0 132064 0 0 empty guia empty -2 -8 0 10 -262144
-258113 -1 0 1;
#N canvas 0 0 450 300 (subpatch) 0;
#X array sound 1 float 2;
#X coords 0 1 1 -1 350 140 1;
#X restore 17 48 graph;
#N canvas 277 267 837 338 player 0;
#X obj 52 169 outlet~;
#X obj 49 133 dac~;
#X obj 70 -38 inlet;
#X obj 106 187 s guia;
#X obj 105 133 count~;
#X obj 106 162 snapshot~;
#X msg 151 106 stop;
#X msg 183 52 range 0 \$1;
#X obj 185 118 bang~;
#X obj 185 139 spigot;
#X obj 221 119 tgl 15 0 empty empty empty 17 7 0 10 -262144 -1 -1 0
1;
#X msg 169 80 1;
#X msg 210 88 0;
#X obj 71 -15 t b b;
#X obj 273 78 r scale;
#X obj 272 103 t b f;
#X obj 271 172 pack f 5000 f;
#X msg 271 197 bounds 0 \$2 \$1 \$3;
#X obj 340 149 * -1;
#X obj 268 150 - 1;
#X obj 70 47 tabplay~ sound;
#X obj 183 18 arraysize sound;
#X obj 526 242 s vector;
#X obj 556 138 * -1;
#X obj 271 219 s MelCepstralCoefficients;
#X obj 537 213 s MelCepstralCoefficients-rt;
#X msg 609 69 \; MelCepstralCoefficients-rt resize \$1 \; vector resize
\$1;
#X obj 582 45 r bands;
#X msg 528 182 bounds 0 \$1 \$3 \$2;
#X obj 527 161 pack f f f;
#X obj 271 124 arraysize MelCepstralCoefficients;
#X obj 583 115 - 1;
#X connect 2 0 13 0;
#X connect 4 0 5 0;
#X connect 5 0 3 0;
#X connect 6 0 4 0;
#X connect 7 0 3 0;
#X connect 8 0 9 0;
#X connect 9 0 5 0;
#X connect 10 0 9 1;
#X connect 11 0 10 0;
#X connect 12 0 10 0;
#X connect 13 0 4 0;
#X connect 13 0 11 0;
#X connect 13 0 20 0;
#X connect 13 1 21 0;
#X connect 14 0 15 0;
#X connect 15 0 30 0;
#X connect 15 1 18 0;
#X connect 15 1 16 1;
#X connect 15 1 23 0;
#X connect 15 1 29 0;
#X connect 16 0 17 0;
#X connect 17 0 24 0;
#X connect 18 0 16 2;
#X connect 19 0 16 0;
#X connect 20 0 1 0;
#X connect 20 0 1 1;
#X connect 20 0 0 0;
#X connect 20 1 6 0;
#X connect 20 1 12 0;
#X connect 21 0 7 0;
#X connect 23 0 29 1;
#X connect 27 0 26 0;
#X connect 27 0 31 0;
#X connect 28 0 22 0;
#X connect 28 0 25 0;
#X connect 29 0 28 0;
#X connect 30 0 19 0;
#X connect 31 0 29 2;
#X restore 20 389 pd player;
#X obj 20 371 bng 15 250 50 0 empty empty Play 17 7 0 10 -262144 -1
-1;
#X text 234 490 as in switch~ and block~ objects;
#X text 559 515 by Adriano Monteiro - monteiro.adc@gmail.com;
#X text 234 476 window size and overlappling \,;
#X text 238 457 arguments and the message 'set \$1 \$2' are;
#X obj 20 486 list prepend 0;
#X msg 92 387 rt 1024 2;
#X msg 91 364 off;
#N canvas 0 0 565 300 values 0;
#X obj 176 7 inlet;
#X obj 442 148 outlet;
#X obj 220 37 b;
#X obj 218 105 s guia2;
#X msg 218 80 range 0 \$1;
#X obj 176 80 * 24;
#X obj 176 198 arraycopy vector;
#X obj 474 127 s guia3;
#X obj 442 94 tabread vector;
#X obj 442 55 f;
#X obj 442 16 inlet;
#X obj 220 59 arraysize MelCepstralCoefficients;
#X obj 177 56 max 0;
#X obj 176 142 pack f f;
#X obj 235 142 r bands;
#X msg 176 170 copy MelCepstralCoefficients \$1 +\$2;
#X msg 306 216 range 0 \$1;
#X obj 306 241 s guia3;
#X connect 0 0 2 0;
#X connect 0 0 12 0;
#X connect 2 0 9 0;
#X connect 2 0 11 0;
#X connect 4 0 3 0;
#X connect 5 0 3 0;
#X connect 5 0 13 0;
#X connect 8 0 1 0;
#X connect 9 0 7 0;
#X connect 9 0 8 0;
#X connect 10 0 9 0;
#X connect 11 0 4 0;
#X connect 12 0 5 0;
#X connect 13 0 15 0;
#X connect 14 0 13 1;
#X connect 14 0 5 1;
#X connect 14 0 16 0;
#X connect 15 0 6 0;
#X connect 16 0 17 0;
#X restore 603 421 pd values;
#X floatatom 603 378 5 0 0 2 Vector - -;
#X floatatom 654 399 5 0 0 2 Band-coef - -;
#X floatatom 603 450 9 0 0 0 - - -;
#X obj 473 50 hsl 345 140 0 11091 0 0 empty guia2 empty -2 -8 0 10
-262144 -258113 -1 0 1;
#N canvas 0 0 450 300 (subpatch) 0;
#X array MelCepstralCoefficients 1 float 1;
#A 0 59.6649;
#X coords 0 60 0 -60 350 140 1 0 0;
#X restore 470 50 graph;
#N canvas 0 0 450 300 (subpatch) 0;
#X array MelCepstralCoefficients-rt 40 float 1;
#A 0 -4.60793 4.59868 -4.58328 4.56173 -4.53408 4.50035 -4.46059 4.41488
-4.36326 4.30578 -4.24254 4.17364 -4.09914 4.01917 -3.93379 3.84316
-3.7474 3.64662 -3.54096 3.43055 -3.31562 3.19615 -3.0725 2.94467 -2.81298
2.67746 -2.53836 2.39594 -2.25027 2.10159 -1.95012 1.79609 -1.63964
1.48096 -1.32037 1.15805 -0.994138 0.828885 -0.66264 0.495481;
#X coords 0 60 0 -60 350 140 1 0 0;
#X restore 15 209 graph;
#X obj 473 212 hsl 345 140 0 40 0 0 empty guia3 empty -2 -8 0 10 -262144
-258113 -1 0 1;
#N canvas 0 0 450 300 (subpatch) 0;
#X array vector 40 float 1;
#A 0 84.3274 -54.5721 -14.1135 -4.6402 -7.51992 -4.35906 -27.3521 -1.30386
-13.029 3.96107 6.8532 3.08923 -1.9943 1.30283 -7.69989 5.93343 -5.72077
4.90302 5.32909 12.2686 9.31667 11.8769 3.56312 9.86193 3.56482 15.7669
0.969275 5.19898 -8.05283 -9.3293 -8.60424 -5.78604 -6.38872 -5.991
-7.15651 -0.592496 -1.35496 0.48523 6.22204 11.3971;
#X coords 0 60 0 -60 350 140 1 0 0;
#X restore 470 212 graph;
#X obj 20 511 s MelCepstralCoefficients-rt;
#X msg 93 407 table sound MelCepstralCoefficients 2048 512;
#X obj 92 434 nbx 5 14 -1e+037 1e+037 0 0 bands empty empty 0 -8 0
10 -262144 -1 -1 0 256;
#X msg 92 455 bands \$1;
#X obj 20 463 MFCC~;
#X text 12 -28 MEL Frequency Cepstral Coefficients;
#X text 10 -3 based on (Klapuri e Davy \, 2006);
#X connect 0 0 1 0;
#X connect 2 0 3 0;
#X connect 7 0 29 0;
#X connect 8 0 7 0;
#X connect 13 0 25 0;
#X connect 14 0 29 1;
#X connect 15 0 29 1;
#X connect 16 0 19 0;
#X connect 17 0 16 0;
#X connect 18 0 16 1;
#X connect 26 0 29 1;
#X connect 27 0 28 0;
#X connect 28 0 29 1;
#X connect 29 0 13 0;
