#N canvas 264 175 492 214 10;
#X obj 113 -84 inlet;
#X obj 112 100 switch~;
#N canvas 407 21 537 478 table-rec 0;
#X obj 182 338 arraycopy block\$0;
#X obj 181 130 f;
#X obj 181 231 spigot;
#X obj 181 173 t f f;
#X obj 214 211 <;
#X obj 160 366 f;
#X obj 186 366 + 1;
#X msg 169 69 0;
#X obj 152 -43 inlet;
#X obj 37 65 inlet;
#X obj 152 -19 unpack s s f f;
#X obj 370 136 / 512;
#X obj 207 130 + 512;
#X msg 309 84 set \$1;
#X obj 182 287 pack f s f;
#X msg 182 312 copy \$2 \$1 +\$3;
#X obj 37 158 outlet;
#X obj 152 43 t b b b s;
#X obj 230 188 - 1024;
#X obj 309 106 arraysize sound;
#X obj 37 99 spigot;
#N canvas 208 24 412 364 zeropad 0;
#X obj 156 48 log;
#X obj 141 81 /;
#X obj 156 6 loadbang;
#X floatatom 142 199 5 0 0 0 - - -;
#X obj 141 130 fmod 1;
#X obj 191 131 int;
#X obj 141 154 > 0;
#X obj 142 177 +;
#X obj 141 102 t f f;
#X msg 156 27 2;
#X msg 142 219 2 \$1;
#X obj 142 245 pow;
#X obj 126 47 log;
#X obj 126 -22 inlet;
#X obj 142 304 outlet;
#X msg 142 268 set \$1 1 1;
#X connect 0 0 1 1;
#X connect 1 0 8 0;
#X connect 2 0 9 0;
#X connect 3 0 10 0;
#X connect 4 0 6 0;
#X connect 5 0 7 1;
#X connect 6 0 7 0;
#X connect 7 0 3 0;
#X connect 8 0 4 0;
#X connect 8 1 5 0;
#X connect 9 0 0 0;
#X connect 10 0 11 0;
#X connect 11 0 15 0;
#X connect 12 0 1 0;
#X connect 13 0 12 0;
#X connect 15 0 14 0;
#X restore 311 6 pd zeropad;
#X obj 311 27 outlet;
#X obj 372 211 pack f s;
#X msg 372 234 \; \$2 resize \$1;
#X obj 206 8 s \$0window-size;
#X obj 234 50 s \$0hop-size;
#X obj 408 136 r \$0hop-size;
#X obj 235 108 r \$0hop-size;
#X obj 263 167 r \$0window-size;
#X obj 238 266 r \$0window-size;
#X obj 151 103 del 1;
#X obj 384 41 s \$0interp;
#X obj 383 0 b;
#X msg 384 21 1;
#X obj 75 408 s;
#X obj 210 364 r \$0window-size;
#X obj 406 175 r \$0window-size;
#X obj 370 173 *;
#X obj 74 381 list prepend;
#X obj 37 123 t b b b l;
#X connect 1 0 3 0;
#X connect 1 0 12 0;
#X connect 2 0 14 0;
#X connect 3 0 2 0;
#X connect 3 1 4 0;
#X connect 4 0 2 1;
#X connect 4 0 20 1;
#X connect 5 0 6 0;
#X connect 5 0 39 1;
#X connect 6 0 5 1;
#X connect 7 0 1 0;
#X connect 7 0 5 0;
#X connect 8 0 10 0;
#X connect 9 0 20 0;
#X connect 10 0 17 0;
#X connect 10 1 23 1;
#X connect 10 1 35 1;
#X connect 10 2 21 0;
#X connect 10 2 25 0;
#X connect 10 3 26 0;
#X connect 10 3 33 0;
#X connect 11 0 38 0;
#X connect 12 0 1 1;
#X connect 13 0 19 0;
#X connect 14 0 15 0;
#X connect 15 0 0 0;
#X connect 17 0 31 0;
#X connect 17 1 7 0;
#X connect 17 2 19 0;
#X connect 17 3 13 0;
#X connect 17 3 14 1;
#X connect 18 0 4 1;
#X connect 19 0 18 0;
#X connect 19 0 11 0;
#X connect 20 0 40 0;
#X connect 21 0 22 0;
#X connect 23 0 24 0;
#X connect 27 0 11 1;
#X connect 28 0 12 1;
#X connect 29 0 18 1;
#X connect 30 0 14 2;
#X connect 31 0 16 0;
#X connect 33 0 34 0;
#X connect 34 0 32 0;
#X connect 36 0 6 1;
#X connect 37 0 38 1;
#X connect 38 0 23 0;
#X connect 39 0 35 0;
#X connect 40 0 16 0;
#X connect 40 1 1 0;
#X connect 40 2 5 0;
#X connect 40 3 39 0;
#X restore 25 61 pd table-rec;
#X obj 113 -63 route rt table off;
#X obj 245 46 b;
#X msg 245 70 0;
#X obj 25 -55 inlet~;
#X msg 298 -11 resize \$1 \, const 0;
#X obj 298 -61 table block\$0;
#X obj 297 12 s block\$0;
#N canvas 140 14 347 389 analysis 0;
#X obj 33 -255 tabreceive~ block\$0;
#X obj 172 -126 block~;
#X msg 172 -151 set \$1 1 1;
#X obj 172 -182 r \$0window-size;
#X obj 139 -152 / 2;
#X obj 139 -128 + 1;
#X obj -16 -260 inlet~;
#X obj -16 -209 *~;
#X obj 28 -233 tabreceive~ \$0-hann;
#X obj -21 0 pack~;
#X obj -21 52 outlet;
#X obj -21 26 list split 1024;
#X obj -27 -134 /~ 2048;
#X obj 22 -135 /~ 2048;
#X obj -21 -25 /~ 2048;
#X obj -22 -47 ifft~;
#X obj -15 -181 fft~;
#X obj -28 -158 abs~;
#X obj 10 -161 abs~;
#X obj -24 -110 cyclone/log~ 10;
#X obj 21 -90 cyclone/log~ 10;
#X connect 0 0 7 0;
#X connect 2 0 1 0;
#X connect 3 0 2 0;
#X connect 3 0 4 0;
#X connect 3 0 13 1;
#X connect 3 0 12 1;
#X connect 4 0 5 0;
#X connect 5 0 11 1;
#X connect 6 0 7 0;
#X connect 7 0 16 0;
#X connect 8 0 7 1;
#X connect 9 0 11 0;
#X connect 11 0 10 0;
#X connect 12 0 19 0;
#X connect 13 0 20 0;
#X connect 14 0 9 0;
#X connect 15 0 14 0;
#X connect 16 0 17 0;
#X connect 16 1 18 0;
#X connect 17 0 12 0;
#X connect 18 0 13 0;
#X connect 19 0 15 0;
#X connect 20 0 15 1;
#X restore 25 29 pd analysis;
#X obj 25 -11 *~;
#N canvas 0 0 450 300 rt 0;
#X obj 183 158 outlet;
#X msg 183 121 set \$1 \$2;
#X obj 164 42 inlet;
#X obj 164 70 t b l l;
#X obj 137 158 outlet;
#X msg 137 126 1;
#X obj 271 155 s \$0window-size;
#X obj 271 127 unpack;
#X obj 305 180 s \$0interp;
#X connect 1 0 0 0;
#X connect 2 0 3 0;
#X connect 3 0 5 0;
#X connect 3 1 1 0;
#X connect 3 2 7 0;
#X connect 5 0 4 0;
#X connect 7 0 6 0;
#X connect 7 1 8 0;
#X restore 113 -30 pd rt;
#X obj -21 65 outlet;
#X obj 152 -34 t a b;
#X msg 179 -11 0;
#X obj 298 -36 r \$0window-size;
#N canvas 572 342 507 248 Hann-window 0;
#N canvas 0 0 450 300 (subpatch) 0;
#X array \$0-hann 1024 float 0;
#X coords 0 1 1023 0 200 120 1;
#X restore 279 22 graph;
#X msg 165 58 resize \$1;
#X obj 165 82 s \$0-hann;
#X obj 29 -34 r \$0window-size;
#X obj 47 62 samplerate~;
#X obj 47 84 / 512;
#X obj 47 106 osc~;
#X obj 48 145 +~ 0.5;
#X obj 29 167 tabwrite~ \$0-hann;
#X msg 121 62 0;
#X obj 47 125 *~ -0.5;
#X obj 29 7 t b f;
#X obj 73 40 /;
#X obj 88 13 r \$0interp;
#X connect 1 0 2 0;
#X connect 3 0 11 0;
#X connect 4 0 5 0;
#X connect 5 0 6 0;
#X connect 6 0 10 0;
#X connect 7 0 8 0;
#X connect 9 0 6 1;
#X connect 10 0 7 0;
#X connect 11 0 9 0;
#X connect 11 0 4 0;
#X connect 11 0 8 0;
#X connect 11 1 12 0;
#X connect 11 1 1 0;
#X connect 12 0 5 1;
#X connect 13 0 12 1;
#X restore 299 -86 pd Hann-window;
#X connect 0 0 3 0;
#X connect 2 0 1 0;
#X connect 2 1 1 0;
#X connect 3 0 12 0;
#X connect 3 1 14 0;
#X connect 3 2 4 0;
#X connect 4 0 5 0;
#X connect 5 0 1 0;
#X connect 6 0 11 0;
#X connect 7 0 9 0;
#X connect 10 0 2 0;
#X connect 10 0 13 0;
#X connect 11 0 10 0;
#X connect 12 0 11 1;
#X connect 12 0 1 0;
#X connect 12 1 1 0;
#X connect 14 0 2 1;
#X connect 14 1 15 0;
#X connect 15 0 11 1;
#X connect 15 0 1 0;
#X connect 16 0 7 0;
