#N canvas 350 147 911 391 10;
#X obj 52 -5 bng 15 250 50 0 empty empty insert_sound 17 7 0 10 -262144
-1 -1;
#X floatatom -465 272 9 0 0 1 real-time - -;
#N canvas 557 202 257 268 player 0;
#X obj 7 162 outlet~;
#X obj 4 126 dac~;
#X obj 25 -38 inlet;
#X obj 61 190 s guia;
#X obj 60 136 count~;
#X obj 61 165 snapshot~;
#X msg 106 109 stop;
#X msg 132 54 range 0 \$1;
#X obj 140 121 bang~;
#X obj 140 142 spigot;
#X obj 191 121 tgl 15 0 empty empty empty 17 7 0 10 -262144 -1 -1 0
1;
#X msg 127 86 1;
#X msg 165 91 0;
#X obj 25 -13 t b b;
#X obj 26 67 tabplay~ sound;
#X obj 131 30 arraysize sound;
#X connect 2 0 13 0;
#X connect 4 0 5 0;
#X connect 5 0 3 0;
#X connect 6 0 4 0;
#X connect 7 0 3 0;
#X connect 8 0 9 0;
#X connect 9 0 5 0;
#X connect 10 0 9 1;
#X connect 11 0 10 0;
#X connect 12 0 10 0;
#X connect 13 0 4 0;
#X connect 13 0 11 0;
#X connect 13 0 14 0;
#X connect 13 1 15 0;
#X connect 14 0 1 0;
#X connect 14 0 1 1;
#X connect 14 0 0 0;
#X connect 14 1 6 0;
#X connect 14 1 12 0;
#X connect 15 0 7 0;
#X restore -465 22 pd player;
#X obj -465 3 bng 15 250 50 0 empty empty Play 17 7 0 10 -262144 -1
-1;
#N canvas 0 0 450 300 (subpatch) 0;
#X array Silences 1 float 1;
#A 0 0;
#X coords 0 1 1 0 350 140 1;
#X restore 9 195 graph;
#X floatatom 367 242 8 0 0 2 Sample - -;
#X floatatom 367 281 8 0 0 1 Hz - -;
#N canvas 0 0 450 300 (subpatch) 0;
#X array sound 1 float 2;
#X coords 0 1 1 -1 350 140 1;
#X restore 9 36 graph;
#N canvas 136 89 215 167 sample 0;
#X obj 50 80 soundfiler;
#X obj 50 13 inlet;
#X obj 50 34 openpanel;
#X msg 50 57 read -resize \$1 sound;
#X connect 1 0 2 0;
#X connect 2 0 3 0;
#X connect 3 0 0 0;
#X restore 52 15 pd sample;
#N canvas 519 471 645 210 values 0;
#X obj 203 36 inlet;
#X obj 204 98 outlet;
#X obj 338 103 s guia;
#X obj 203 73 tabread Silences;
#X connect 0 0 2 0;
#X connect 0 0 3 0;
#X connect 3 0 1 0;
#X restore 367 262 pd values;
#X msg -380 90 off;
#X obj -386 164 bng 15 250 50 0 empty empty empty 17 7 0 10 -262144
-1 -1;
#X text -392 27 -----------------------------------------------------------
;
#X text -389 120 -----------------------------------------------------------
;
#X text -353 90 turn real-time mode off;
#X text -267 -56 PARAMETER;
#X text 292 -43 monteiro.adc@gmail.com;
#X text -130 63 (click on play);
#X text -382 45 REAL-TIME MODE: extract from incoming signal;
#X text -387 134 TABLE MODE: extract directly from a table;
#X text -275 156 parameters:;
#X text -302 62 real-time mode: window size \; hop-size;
#X obj -386 183 arraysize sound;
#X text -472 306 * number of analysis windows =;
#X obj -386 207 expr int($f1/512);
#X text 8 -42 Part of PDescriptors-v2 \, by Adriano Monteiro -;
#X text -208 151 source name (table) \; offset (samples) \; destination
table \; number of analysis windows * \; window-size \; hop-size;
#X msg -380 66 rt 1024 512;
#X text -307 15 Silence window (in number of step-windows or hopsize)
;
#X msg -373 14 window 3;
#X msg -371 -11 threshold \$1;
#X floatatom -371 -31 5 0 0 0 - - -;
#X msg -386 232 table sound 0 Silences \$1 1024 512;
#X text -286 305 number of samples in the sound file/ hop-size;
#X obj -465 49 silence;
#X text -289 -9 rms energy threshold (0-100 dB);
#X text -470 -48 SILENCE DETECTOR;
#X connect 0 0 8 0;
#X connect 2 0 34 0;
#X connect 3 0 2 0;
#X connect 5 0 9 0;
#X connect 9 0 6 0;
#X connect 10 0 34 1;
#X connect 11 0 22 0;
#X connect 22 0 24 0;
#X connect 24 0 32 0;
#X connect 27 0 34 1;
#X connect 29 0 34 1;
#X connect 30 0 34 1;
#X connect 31 0 30 0;
#X connect 32 0 34 1;
#X connect 34 0 1 0;
